<svg width="1285" height="1022" viewBox="0 0 1285 1022" fill="none" xmlns="http://www.w3.org/2000/svg">
<g clip-path="url(#clip0_194_7468)">
<path d="M544.47 981.883C549.17 982.177 551.767 976.338 548.211 972.935L547.858 971.529C547.904 971.416 547.951 971.304 547.998 971.191C552.751 959.859 568.858 959.937 573.57 971.286C577.753 981.36 583.078 991.45 584.389 1002.1C584.977 1006.8 584.712 1011.59 583.669 1016.21C593.469 994.798 598.626 971.422 598.626 947.914C598.626 942.007 598.303 936.101 597.642 930.209C597.098 925.39 596.349 920.6 595.379 915.854C590.134 890.2 578.776 865.766 562.394 845.358C554.519 841.053 547.951 834.324 543.984 826.257C542.559 823.348 541.442 820.219 540.913 817.03C541.809 817.148 544.292 803.498 543.617 802.661C544.866 800.766 547.101 799.823 548.465 797.974C555.249 788.776 564.596 790.382 569.476 802.881C579.9 808.142 580.001 816.867 573.605 825.258C569.535 830.597 568.976 837.821 565.406 843.536C565.773 844.006 566.155 844.462 566.523 844.932C573.259 853.572 579.084 862.858 583.996 872.614C582.608 861.771 584.657 848.709 588.15 840.289C592.127 830.695 599.581 822.616 606.145 814.322C614.03 804.36 630.198 808.708 631.587 821.336C631.6 821.458 631.614 821.58 631.626 821.703C630.651 822.253 629.696 822.837 628.763 823.454C623.441 826.974 625.281 835.224 631.586 836.197L631.729 836.219C631.377 839.731 630.774 843.213 629.893 846.636C638.314 879.202 620.133 891.063 594.175 891.596C593.602 891.89 593.043 892.184 592.47 892.463C595.1 899.868 597.201 907.464 598.759 915.163C600.154 921.966 601.124 928.842 601.668 935.748C602.344 944.461 602.285 953.218 601.55 961.916L601.594 961.607C603.46 952.028 608.662 943.08 616.214 936.879C627.464 927.638 643.359 924.234 655.496 916.806C661.338 913.23 668.825 917.851 667.806 924.625L667.756 924.949C665.949 925.684 664.186 926.536 662.481 927.491C661.506 928.041 660.551 928.625 659.618 929.242C654.296 932.762 656.135 941.012 662.441 941.985L662.584 942.007C662.687 942.022 662.775 942.037 662.878 942.051C659.778 949.412 655.458 956.245 650.051 962.136C644.786 990.565 622.171 993.262 597.98 984.984H597.965C595.321 996.503 591.456 1007.76 586.49 1018.48H545.497C545.35 1018.03 545.218 1017.56 545.086 1017.1C548.877 1017.34 552.697 1017.12 556.429 1016.43C553.387 1012.69 550.346 1008.93 547.304 1005.2C547.231 1005.13 547.172 1005.05 547.113 1004.98C545.571 1003.07 544.013 1001.18 542.471 999.265L542.47 999.263C542.373 993.399 543.077 987.554 544.47 981.883Z" fill="#F2F2F2"/>
<path d="M0 1019.29C0 1020.79 1.20573 1022 2.70718 1022H920.121C921.623 1022 922.828 1020.79 922.828 1019.29C922.828 1017.79 921.623 1016.59 920.121 1016.59H2.70718C1.20573 1016.59 0 1017.79 0 1019.29Z" fill="#CCCCCC"/>
<path d="M1239.2 1021.4H769.327C744.586 1021.4 724.458 1001.27 724.458 976.527V44.87C724.458 20.1291 744.586 0 769.327 0H1239.2C1263.94 0 1284.07 20.1291 1284.07 44.87V976.527C1284.07 1001.27 1263.94 1021.4 1239.2 1021.4ZM769.327 4.54965C747.06 4.54965 729.008 22.6012 729.008 44.8689V976.527C729.008 998.795 747.06 1016.85 769.329 1016.85H1239.2C1261.46 1016.85 1279.52 998.795 1279.52 976.527V342.827C1279.52 156.002 1128.06 4.54965 941.238 4.54965H769.327Z" fill="#E6E6E6"/>
<path d="M857.914 459.783C888.067 459.783 912.51 435.34 912.51 405.188C912.51 375.035 888.067 350.592 857.914 350.592C827.762 350.592 803.318 375.035 803.318 405.188C803.318 435.34 827.762 459.783 857.914 459.783Z" fill="#E6E6E6"/>
<path d="M1150.61 459.783C1180.76 459.783 1205.2 435.34 1205.2 405.188C1205.2 375.035 1180.76 350.592 1150.61 350.592C1120.46 350.592 1096.01 375.035 1096.01 405.188C1096.01 435.34 1120.46 459.783 1150.61 459.783Z" fill="#E6E6E6"/>
<path d="M1004.26 459.783C1034.41 459.783 1058.86 435.34 1058.86 405.188C1058.86 375.035 1034.41 350.592 1004.26 350.592C974.108 350.592 949.665 375.035 949.665 405.188C949.665 435.34 974.108 459.783 1004.26 459.783Z" fill="#E6E6E6"/>
<path d="M857.914 616.746C888.067 616.746 912.51 592.303 912.51 562.15C912.51 531.998 888.067 507.555 857.914 507.555C827.762 507.555 803.318 531.998 803.318 562.15C803.318 592.303 827.762 616.746 857.914 616.746Z" fill="#E6E6E6"/>
<path d="M1150.61 616.746C1180.76 616.746 1205.2 592.303 1205.2 562.15C1205.2 531.998 1180.76 507.555 1150.61 507.555C1120.46 507.555 1096.01 531.998 1096.01 562.15C1096.01 592.303 1120.46 616.746 1150.61 616.746Z" fill="#E6E6E6"/>
<path d="M1004.26 616.746C1034.41 616.746 1058.86 592.303 1058.86 562.15C1058.86 531.998 1034.41 507.555 1004.26 507.555C974.108 507.555 949.665 531.998 949.665 562.15C949.665 592.303 974.108 616.746 1004.26 616.746Z" fill="#E6E6E6"/>
<path d="M857.914 773.709C888.067 773.709 912.51 749.266 912.51 719.113C912.51 688.961 888.067 664.518 857.914 664.518C827.762 664.518 803.318 688.961 803.318 719.113C803.318 749.266 827.762 773.709 857.914 773.709Z" fill="#E6E6E6"/>
<path d="M1149.49 930.404C1179.64 930.404 1204.09 905.96 1204.09 875.808C1204.09 845.655 1179.64 821.212 1149.49 821.212C1119.34 821.212 1094.9 845.655 1094.9 875.808C1094.9 905.96 1119.34 930.404 1149.49 930.404Z" fill="#E6E6E6"/>
<path d="M932.246 930.404C1003.23 930.404 1060.77 905.96 1060.77 875.808C1060.77 845.655 1003.23 821.212 932.246 821.212C861.263 821.212 803.719 845.655 803.719 875.808C803.719 905.96 861.263 930.404 932.246 930.404Z" fill="#E6E6E6"/>
<path d="M1150.61 773.709C1180.76 773.709 1205.2 749.266 1205.2 719.113C1205.2 688.961 1180.76 664.518 1150.61 664.518C1120.46 664.518 1096.01 688.961 1096.01 719.113C1096.01 749.266 1120.46 773.709 1150.61 773.709Z" fill="#E6E6E6"/>
<path d="M1004.26 773.709C1034.41 773.709 1058.86 749.266 1058.86 719.113C1058.86 688.961 1034.41 664.518 1004.26 664.518C974.108 664.518 949.665 688.961 949.665 719.113C949.665 749.266 974.108 773.709 1004.26 773.709Z" fill="#0B84D5"/>
<path d="M1014.99 63.6951H492.842C477.359 63.6951 464.77 76.2847 464.77 91.7672V283.579C464.77 299.061 477.359 311.651 492.842 311.651H1014.99C1030.47 311.651 1043.06 299.061 1043.06 283.579V91.7672C1043.06 76.2847 1030.47 63.6951 1014.99 63.6951Z" fill="white"/>
<path d="M1014.99 63.6951H492.842C477.359 63.6951 464.77 76.2847 464.77 91.7672V283.579C464.77 299.061 477.359 311.651 492.842 311.651H1014.99C1030.47 311.651 1043.06 299.061 1043.06 283.579V91.7672C1043.06 76.2847 1030.47 63.6951 1014.99 63.6951ZM1040.11 283.579C1040.11 297.438 1028.85 308.699 1014.99 308.699H492.842C478.983 308.699 467.722 297.438 467.722 283.579V91.7672C467.722 77.9083 478.983 66.6469 492.842 66.6469H1014.99C1028.85 66.6469 1040.11 77.9083 1040.11 91.7672V283.579Z" fill="#3F3D56"/>
<path d="M985.948 179.711H521.884C517.486 179.711 513.922 183.276 513.922 187.673C513.922 192.07 517.486 195.635 521.884 195.635H985.948C990.345 195.635 993.91 192.07 993.91 187.673C993.91 183.276 990.345 179.711 985.948 179.711Z" fill="#0B84D5"/>
<path d="M154.579 410.427L149.928 438.122L191.173 538.451L213.301 527.074L191.763 433.187L188.668 397.357L154.579 410.427Z" fill="#A0616A"/>
<path d="M200.108 254.618C200.108 254.618 178.514 244.157 161.757 279.502C145.001 314.846 147.076 392.366 147.076 392.366C147.076 392.366 140.975 398.176 144.848 402.243C148.721 406.311 152.332 412.766 148.381 420.207C146.298 424.129 141.479 431.801 149.371 433.981C157.263 436.16 194.181 425.864 194.181 425.864C194.181 425.864 207.985 419.68 200.141 415.515C192.298 411.35 203.345 386.158 203.345 386.158L212.472 313.383L200.108 254.618Z" fill="#0B84D5"/>
<path d="M217.063 576.782C225.731 574.121 229.123 560.129 224.641 545.531C220.158 530.933 209.498 521.257 200.83 523.919C192.163 526.58 188.77 540.572 193.253 555.17C197.736 569.768 208.396 579.444 217.063 576.782Z" fill="#A0616A"/>
<path d="M421.475 1006.77L442.144 1001.22L430.584 918.854L400.077 927.042L421.475 1006.77Z" fill="#A0616A"/>
<path d="M492.167 987.298C493.102 988.209 494.38 991.616 494.718 992.877C495.758 996.751 493.46 1000.74 489.585 1001.77L425.572 1018.95C422.929 1019.66 420.211 1018.09 419.502 1015.45L418.787 1012.78C418.787 1012.78 413.471 1005.62 417.342 994.002C417.342 994.002 427.519 999.558 436.378 984.201L438.213 976.775L469.131 988.742L483.93 986.662C487.167 986.206 489.827 985.015 492.167 987.298Z" fill="#2F2E41"/>
<path d="M218.864 1006.29L240.266 1006.29L250.446 923.743L218.86 923.745L218.864 1006.29Z" fill="#A0616A"/>
<path d="M292.188 1005.81C292.854 1006.93 293.206 1010.55 293.206 1011.86C293.206 1015.87 289.954 1019.12 285.942 1019.12H219.664C216.928 1019.12 214.709 1016.9 214.709 1014.17V1011.41C214.709 1011.41 211.43 1003.11 218.181 992.892C218.181 992.892 226.57 1000.9 239.107 988.36L242.804 981.663L269.564 1001.23L284.396 1003.06C287.641 1003.46 290.518 1003 292.188 1005.81Z" fill="#2F2E41"/>
<path d="M361.295 514.577L417.571 757.147L444.738 953.143L402.046 958.964L283.672 625.189L256.504 958.964L207.991 962.846C207.991 962.846 169.179 566.972 186.644 518.458L361.295 514.577Z" fill="#2F2E41"/>
<path d="M428.28 227.743L447.697 207.454L469.995 101.295L445.299 98.2626L410.326 188.015L392.741 219.387L428.28 227.743Z" fill="#A0616A"/>
<path d="M303.03 330.999C303.03 330.999 321.202 364.506 354.931 344.697C388.659 324.888 424.331 246.898 424.331 246.898C424.331 246.898 431.454 227.072 438.905 223.14C442.832 221.068 452.937 218.833 447.635 212.593C442.334 206.353 404.209 192.713 404.209 192.713C404.209 192.713 389.317 190.066 393.462 197.92C397.607 205.774 383.993 200.908 385.367 209.22C386.742 217.533 374.307 220.397 374.307 220.397L303.03 330.999Z" fill="#0B84D5"/>
<path d="M477.675 86.2998C482.175 71.7073 478.799 57.7117 470.135 55.0398C461.47 52.3678 450.799 62.0314 446.298 76.624C441.798 91.2165 445.174 105.212 453.839 107.884C462.503 110.556 473.175 100.892 477.675 86.2998Z" fill="#A0616A"/>
<path d="M305.442 214.911H252.311L250.161 231.663C250.161 231.663 183.153 250.09 184.828 260.141C186.503 270.192 196.554 437.713 196.554 437.713L188.178 521.473C188.178 521.473 338.946 585.13 362.399 509.746L350.673 422.636C350.673 422.636 379.151 273.543 372.45 266.842C365.75 260.141 310.468 233.338 310.468 233.338L305.442 214.911Z" fill="#0B84D5"/>
<path d="M274.58 215.119C300.918 215.119 322.27 193.768 322.27 167.43C322.27 141.092 300.918 119.74 274.58 119.74C248.242 119.74 226.891 141.092 226.891 167.43C226.891 193.768 248.242 215.119 274.58 215.119Z" fill="#A0616A"/>
<path d="M309.898 147.813C315.992 147.298 322.085 146.783 328.178 146.268C326.084 145.307 323.902 144.279 322.507 142.445C321.111 140.612 320.823 137.714 322.508 136.143C324.478 134.307 327.741 135.28 329.893 136.897C328.708 130.708 325.014 125.036 319.831 121.451C313.5 117.071 297.838 122.294 290.205 121.288C281.399 120.128 280.3 112.62 271.493 111.46C268.174 111.023 264.439 110.693 261.828 112.79C258.933 115.115 258.609 119.512 256.054 122.208C252.408 126.056 246.157 124.921 240.968 126.003C233.617 127.537 228.076 133.983 225.517 141.042C222.957 148.102 222.863 155.78 222.798 163.289C222.725 171.704 222.698 181.446 228.785 187.258C232.493 190.799 242.593 202.948 243.685 207.958C244.461 211.516 276.064 215.849 282.914 215.652L306.261 207.958C308.555 197.854 304.76 177.868 299.305 169.06C301.101 171.432 309.409 178.576 310.679 175.884C311.949 173.193 311.373 164.756 312.954 162.235C314.949 159.053 306.156 148.129 309.898 147.813Z" fill="#2F2E41"/>
</g>
<defs>
<clipPath id="clip0_194_7468">
<rect width="1284.07" height="1022" fill="white"/>
</clipPath>
</defs>
</svg>
